<?xml version="1.0" encoding="utf-8"?>
<!-- Generator: Adobe Illustrator 17.0.0, SVG Export Plug-In . SVG Version: 6.00 Build 0)  -->
<!DOCTYPE svg PUBLIC "-//W3C//DTD SVG 1.1//EN" "http://www.w3.org/Graphics/SVG/1.1/DTD/svg11.dtd">
<svg version="1.1"
	 id="svg3347" xmlns:osb="http://www.openswatchbook.org/uri/2009/osb" xmlns:dc="http://purl.org/dc/elements/1.1/" xmlns:cc="http://creativecommons.org/ns#" xmlns:rdf="http://www.w3.org/1999/02/22-rdf-syntax-ns#" xmlns:svg="http://www.w3.org/2000/svg" xmlns:sodipodi="http://sodipodi.sourceforge.net/DTD/sodipodi-0.dtd" xmlns:inkscape="http://www.inkscape.org/namespaces/inkscape" sodipodi:docname="A4 - L15-16 Aarschot - Lier - Aarschot.svg" inkscape:version="0.48.2 r9819"
	 xmlns="http://www.w3.org/2000/svg" xmlns:xlink="http://www.w3.org/1999/xlink" x="0px" y="0px" width="1063.445px"
	 height="730.138px" viewBox="0 0 1063.445 730.138" enable-background="new 0 0 1063.445 730.138" xml:space="preserve">
<symbol  id="AVG" viewBox="-9.548 -9.548 19.096 19.096">
	
		<path id="path6428-5-6_2_" sodipodi:cx="423.6492" sodipodi:type="arc" sodipodi:rx="14.782609" sodipodi:ry="14.782609" sodipodi:cy="358.56757" fill="#FF0000" stroke="#000000" d="
		M3.307,0c0-1.827-1.481-3.307-3.307-3.307S-3.307-1.826-3.307,0S-1.827,3.307,0,3.307S3.307,1.827,3.307,0z"/>
	
		<path id="path6430-2-18_2_" sodipodi:cx="423.6492" sodipodi:type="arc" sodipodi:rx="14.782609" sodipodi:ry="14.782609" sodipodi:cy="358.56757" fill="#FFFFFF" stroke="#000000" d="
		M1.428,6.306c0-0.789-0.639-1.428-1.428-1.428s-1.428,0.639-1.428,1.428S-0.789,7.734,0,7.734S1.428,7.095,1.428,6.306z"/>
	
		<path id="path6432-7-2_2_" sodipodi:cx="423.6492" sodipodi:type="arc" sodipodi:rx="14.782609" sodipodi:ry="14.782609" sodipodi:cy="358.56757" fill="#FFFFFF" stroke="#000000" d="
		M1.428-6.462C1.428-7.251,0.789-7.89,0-7.89s-1.428,0.639-1.428,1.428S-0.789-5.034,0-5.034S1.428-5.673,1.428-6.462z"/>
	
		<path id="path6434-6-1_2_" sodipodi:cx="423.6492" sodipodi:type="arc" sodipodi:rx="14.782609" sodipodi:ry="14.782609" sodipodi:cy="358.56757" fill="#FFFFFF" stroke="#000000" d="
		M7.297,3.332c0-0.789-0.639-1.428-1.428-1.428S4.441,2.543,4.441,3.332S5.08,4.76,5.869,4.76S7.297,4.121,7.297,3.332z"/>
	
		<path id="path6436-1-1_2_" sodipodi:cx="423.6492" sodipodi:type="arc" sodipodi:rx="14.782609" sodipodi:ry="14.782609" sodipodi:cy="358.56757" fill="#FFFFFF" stroke="#000000" d="
		M7.297-3.052c0-0.789-0.639-1.428-1.428-1.428S4.441-3.841,4.441-3.052S5.08-1.624,5.869-1.624S7.297-2.263,7.297-3.052z"/>
	
		<path id="path6438-4-9_2_" sodipodi:cx="423.6492" sodipodi:type="arc" sodipodi:rx="14.782609" sodipodi:ry="14.782609" sodipodi:cy="358.56757" fill="#FFFFFF" stroke="#000000" d="
		M-4.832,3.332c0-0.789-0.639-1.428-1.428-1.428s-1.428,0.639-1.428,1.428S-7.049,4.76-6.261,4.76S-4.832,4.121-4.832,3.332z"/>
	
		<path id="path6440-2-7_2_" sodipodi:cx="423.6492" sodipodi:type="arc" sodipodi:rx="14.782609" sodipodi:ry="14.782609" sodipodi:cy="358.56757" fill="#FFFFFF" stroke="#000000" d="
		M-4.832-3.052c0-0.789-0.639-1.428-1.428-1.428s-1.428,0.639-1.428,1.428s0.639,1.428,1.428,1.428S-4.832-2.263-4.832-3.052z"/>
	<polygon id="rect6442-3-6_2_" fill="none" stroke="#000000" points="-9.048,9.048 9.048,9.048 9.048,-9.048 -9.048,-9.048 	"/>
</symbol>
<symbol  id="Aankondiging_L_2" viewBox="-29.808 -19.985 59.617 39.971">
	
		<path id="path3023-7-9-7-0-0_2_" sodipodi:arg1="0.51914611" sodipodi:arg2="1.5663437" sodipodi:cx="370" sodipodi:r1="80.622574" sodipodi:sides="3" sodipodi:type="star" sodipodi:cy="482.36218" sodipodi:r2="40.311291" inkscape:transform-center-x="0.12807283" inkscape:transform-center-y="13.264604" inkscape:flatsided="true" inkscape:rounded="0" inkscape:randomized="0" fill="#FFFF00" stroke="#000000" stroke-width="1.4727" d="
		M-28.434,19.104l35.979,0.14l-17.851-27.24L-28.434,19.104z"/>
	<path id="path3936-5-0-6-3-5-8-8_2_" inkscape:connector-curvature="0" fill="none" stroke="#000000" stroke-width="1.772" d="
		M-10.446-8.139v-5.265h39.368v-6.581v3.948"/>
</symbol>
<symbol  id="Aankondiging_R" viewBox="-29.442 -10.52 58.884 21.04">
	<path id="path5827_2_" inkscape:connector-curvature="0" fill="none" stroke="#000000" stroke-width="1.772" d="M-10.812,4.22
		v-5.265h39.368v-6.581v3.948"/>
	<polygon id="rect5829_2_" fill="#0000FF" stroke="#000000" points="-28.942,10.02 11.138,10.02 11.138,-10.02 -28.942,-10.02 	"/>
</symbol>
<symbol  id="Beheerd_L" viewBox="-28.758 -23.722 57.517 47.444">
	<polygon id="rect5937_2_" fill="none" stroke="#000000" stroke-width="1.7894" points="-27.864,22.827 -0.309,22.827 
		-0.309,-0.891 -27.864,-0.891 	"/>
	<path id="path5943_2_" inkscape:connector-curvature="0" fill="none" stroke="#000000" stroke-width="1.7717" d="M-13.928-0.922
		v-10.133h41.8v-12.667v7.6"/>
</symbol>
<symbol  id="Dubbel_perron" viewBox="-21.135 -37.3 42.27 74.601">
	<g id="g10235-43_2_" transform="translate(-81.04031,-349.25607)">
		<path id="rect4022-0-98_2_" inkscape:connector-curvature="0" fill="#808080" d="M59.905,386.557H77.22v-74.601H59.905V386.557z"
			/>
	</g>
	<path id="rect4022-8-2-8_2_" inkscape:connector-curvature="0" fill="#808080" d="M3.82,37.253h17.315v-74.412H3.82V37.253z"/>
</symbol>
<symbol  id="Einde_zone__x2B__lijn_L" viewBox="-29.743 -34.144 59.485 68.287">
	<g id="g4754-9-3_2_" transform="matrix(0.8,0,0,0.8,402.32563,71.963844)">
		
			<path id="path2991-5-4_2_" sodipodi:arg1="0" sodipodi:arg2="0.52359878" sodipodi:cx="290" sodipodi:r1="130" sodipodi:sides="6" sodipodi:type="star" sodipodi:cy="172.36218" sodipodi:r2="112.5833" inkscape:flatsided="true" inkscape:rounded="0" inkscape:randomized="0" fill="#0000FF" stroke="#000000" d="
			M-515.773-118.192l-11.855,7.43v14.86l11.855,7.43l11.855-7.43v-14.86L-515.773-118.192z"/>
	</g>
	<path id="path3936-5-0-2-3-1-3_2_" inkscape:connector-curvature="0" fill="none" stroke="#000000" stroke-width="1.772" d="
		M-10.512-22.298v-5.265h39.368v-6.581v3.948"/>
	
		<path id="path10787-2_2_" sodipodi:arg1="1.5707963" sodipodi:arg2="2.6179939" sodipodi:cx="320" sodipodi:r1="80" sodipodi:sides="3" sodipodi:type="star" sodipodi:cy="622.36218" sodipodi:r2="40" inkscape:transform-center-y="20" inkscape:flatsided="true" inkscape:rounded="0" inkscape:randomized="0" fill="#008000" d="
		M-10.263,1.083l-19.48,33.06h38.96L-10.263,1.083z"/>
	
		<path id="path10789-4_2_" sodipodi:arg1="1.5707963" sodipodi:arg2="2.6179939" sodipodi:cx="520" sodipodi:r1="60" sodipodi:sides="3" sodipodi:type="star" sodipodi:cy="592.36218" sodipodi:r2="30" inkscape:transform-center-y="14.999985" inkscape:flatsided="true" inkscape:rounded="0" inkscape:randomized="0" fill="#FFFF00" d="
		M-10.263,6.593l-14.058,24.795H3.796L-10.263,6.593z"/>
</symbol>
<symbol  id="Einde_zone_L" viewBox="-27.557 -19.58 55.113 39.16">
	
		<path id="path6503-2_2_" sodipodi:arg1="1.5707963" sodipodi:arg2="2.6179939" sodipodi:cx="320" sodipodi:r1="80" sodipodi:sides="3" sodipodi:type="star" sodipodi:cy="622.36218" sodipodi:r2="40" inkscape:transform-center-y="20" inkscape:flatsided="true" inkscape:rounded="0" inkscape:randomized="0" fill="#008000" d="
		M-10.73-8.977L-27.557,19.58H6.097L-10.73-8.977z"/>
	
		<path id="path6505-5_2_" sodipodi:arg1="1.5707963" sodipodi:arg2="2.6179939" sodipodi:cx="520" sodipodi:r1="60" sodipodi:sides="3" sodipodi:type="star" sodipodi:cy="592.36218" sodipodi:r2="30" inkscape:transform-center-y="14.999985" inkscape:flatsided="true" inkscape:rounded="0" inkscape:randomized="0" fill="#FFFF00" d="
		M-10.73-4.218L-22.874,17.2H1.414L-10.73-4.218z"/>
	<path id="path6511-7_2_" inkscape:connector-curvature="0" fill="none" stroke="#000000" stroke-width="1.772" d="M-10.73-8.327
		v-5.001h37.4v-6.252v3.751"/>
</symbol>
<symbol  id="Enkel_perron" viewBox="-8.657 -37.206 17.314 74.412">
	<path id="path3610_2_" inkscape:connector-curvature="0" fill="#808080" d="M-8.657,37.206H8.657v-74.412H-8.657V37.206z"/>
</symbol>
<symbol  id="Oorsprong_L" viewBox="-36.09 -15.041 72.18 30.081">
	<polygon id="rect4760-7-8_2_" fill="#FFFFFF" stroke="#000000" points="-35.59,14.54 0.668,14.54 0.668,-3.744 -35.59,-3.744 	"/>
	
		<path id="path4762-6-8_2_" sodipodi:cx="309.45651" sodipodi:type="arc" sodipodi:rx="17.5" sodipodi:ry="17.5" sodipodi:cy="208.7684" fill="#FFFFFF" stroke="#000000" d="
		M-8.641,5.398c0-4.871-3.949-8.82-8.82-8.82s-8.82,3.949-8.82,8.82s3.949,8.82,8.82,8.82S-8.641,10.269-8.641,5.398z"/>
	<path id="path4768-2-7_2_" inkscape:connector-curvature="0" fill="none" stroke="#000000" stroke-width="1.772" d="M-17.423-3.195
		V-8.46h52.627v-6.581v3.948"/>
</symbol>
<symbol  id="Overweg" viewBox="-23.969 -4.8 47.938 9.599">
	<path id="path5254_2_" inkscape:connector-curvature="0" fill="#999999" stroke="#999999" stroke-width="0.8622" d="M-23.969,0.099
		h47.938"/>
	<path id="path5256_2_" inkscape:connector-curvature="0" fill="#999999" stroke="#999999" stroke-width="0.8935" d="M-17.249,0.241
		v4.558"/>
	<path id="path5258_2_" inkscape:connector-curvature="0" fill="#999999" stroke="#999999" d="M17.129-0.098V-4.8"/>
</symbol>
<symbol  id="Permissief_kast_L_1_" viewBox="-28.436 -24.193 56.872 48.386">
	
		<radialGradient id="rect6404_1_" cx="-961.9294" cy="-54312.5352" r="14.8751" gradientTransform="matrix(1 0 0 -0.8642 -109.2531 -46917.6016)" gradientUnits="userSpaceOnUse">
		<stop  offset="0" style="stop-color:#000000"/>
		<stop  offset="1" style="stop-color:#000000"/>
	</radialGradient>
	<polygon id="rect6404_2_" fill="url(#rect6404_1_)" stroke="#000000" stroke-width="1.7717" points="-27.55,23.307 0.005,23.307 
		0.005,-0.411 -27.55,-0.411 	"/>
	<path id="path6406_2_" inkscape:connector-curvature="0" fill="none" stroke="#000000" stroke-width="1.7717" d="M-14.25-1.393
		v-10.133h41.8v-12.667v7.6"/>
	<polygon id="rect6408_2_" fill="#FFFFFF" points="-27.073,19.277 -0.473,19.277 -0.473,3.618 -27.073,3.618 	"/>
</symbol>
<symbol  id="Referte_L" viewBox="-29.055 -19.402 58.11 38.804">
	<path id="path13768_2_" inkscape:connector-curvature="0" fill="none" stroke="#000000" stroke-width="1.772" d="M-11.199-7.557
		v-5.264h39.368v-6.581v3.948"/>
	
		<path id="path13770_2_" sodipodi:arg1="0.51914611" sodipodi:arg2="1.5663437" sodipodi:cx="370" sodipodi:r1="80.622574" sodipodi:sides="3" sodipodi:type="star" sodipodi:cy="482.36218" sodipodi:r2="40.311291" inkscape:transform-center-x="-0.1280773" inkscape:transform-center-y="-13.264607" inkscape:flatsided="true" inkscape:rounded="0" inkscape:randomized="0" fill="#008000" d="
		M6.924-7.698l-35.979-0.14l17.851,27.24L6.924-7.698z"/>
</symbol>
<symbol  id="Splitsing_linksaf" viewBox="-12.459 -12.364 24.919 24.727">
	<path id="path6513-1-4_2_" inkscape:connector-curvature="0" fill="none" stroke="#000000" stroke-width="1.6596" d="
		M11.875-11.775l-23.75,23.549"/>
</symbol>
<symbol  id="Splitsing_rechtsaf" viewBox="-12.364 -12.459 24.727 24.919">
	<path id="path7303-1-2-8_2_" inkscape:connector-curvature="0" fill="none" stroke="#000000" stroke-width="1.6596" d="
		M11.774,11.875l-23.549-23.75"/>
</symbol>
<symbol  id="Stopbord_KB_L" viewBox="-25.964 -13.23 51.928 26.46">
	<path id="path8108-5_2_" inkscape:connector-curvature="0" fill="none" stroke="#000000" stroke-width="1.772" d="M-12.322-1.977
		v-5.001h37.4v-6.252v3.751"/>
	<polygon id="rect8110-3_2_" fill="#FFFFFF" stroke="#000000" points="-25.464,12.625 -0.269,12.625 -0.269,-2.442 -25.464,-2.442 	
		"/>
	
		<path id="path8112-2_2_" sodipodi:arg1="0.52359878" sodipodi:arg2="1.5707963" sodipodi:cx="355" sodipodi:r1="57.271282" sodipodi:sides="3" sodipodi:type="star" sodipodi:cy="501.09448" sodipodi:r2="28.635641" inkscape:transform-center-y="-2.0006402" inkscape:flatsided="false" inkscape:rounded="0" inkscape:randomized="0" fill="#FFFFFF" stroke="#000000" stroke-width="2.3547" d="
		M-4.935-0.91h-7.932h-7.932l3.966,6.002l3.966,6.002l3.966-6.002L-4.935-0.91z"/>
</symbol>
<symbol  id="Verwittiging_L" viewBox="-29.856 -27.026 59.712 54.052">
	<path id="path3936-3-3-5-9_2_" inkscape:connector-curvature="0" fill="none" stroke="#000000" stroke-width="1.7717" d="
		M-12.83-4.226v-10.133h41.8v-12.667v7.6"/>
	
		<path id="path10647-2_2_" sodipodi:cx="319.2587" sodipodi:type="arc" sodipodi:rx="9.5459414" sodipodi:ry="9.5459414" sodipodi:cy="432.61395" fill="#FFFFFF" stroke="#000000" stroke-width="1.1189" d="
		M0.615,11.511c0-8.26-6.696-14.956-14.956-14.956s-14.956,6.696-14.956,14.956S-22.6,26.467-14.34,26.467
		C-6.081,26.467,0.615,19.771,0.615,11.511z"/>
</symbol>
<ellipse opacity="0.4" fill="#FF0000" enable-background="new    " cx="250.494" cy="108.567" rx="26.398" ry="43.534"/>
<sodipodi:namedview  id="namedview3351" inkscape:zoom="0.70710678" pagecolor="#ffffff" borderopacity="1.0" bordercolor="#666666" inkscape:cy="363.66932" showguides="true" inkscape:cx="389.17401" units="mm" showgrid="false" guidetolerance="4" objecttolerance="4" inkscape:guide-bbox="true" inkscape:window-maximized="1" inkscape:window-y="-8" inkscape:window-x="-8" inkscape:window-height="706" inkscape:window-width="1366" inkscape:current-layer="layer1" inkscape:pageshadow="2" inkscape:document-units="mm" inkscape:pageopacity="0.0">
	<sodipodi:guide  position="526.26852,744.10501" orientation="1,0" id="guide3356"></sodipodi:guide>
	<sodipodi:guide  position="490.23389,690.56202" orientation="0,1" id="guide5279"></sodipodi:guide>
</sodipodi:namedview>
<path id="path3855-9" inkscape:connector-curvature="0" stroke="#000000" stroke-width="2.4121" d="M633.656,70.764v638.265"/>
<path id="path3857" inkscape:connector-curvature="0" stroke="#000000" stroke-width="2.4121" d="M759.106,70.764v638.265"/>
<text transform="matrix(1 0 0 1 147.2267 52.9481)" font-family="'Arial-BoldMT'" font-size="22.8">L15 : Y. Zonhoven - Mol</text>
<use xlink:href="#Splitsing_rechtsaf"  width="24.727" height="24.919" x="-12.364" y="-12.459" transform="matrix(1 0 0 -1 126.3406 692.553)" overflow="visible"/>
<use xlink:href="#Einde_zone__x2B__lijn_L"  width="59.485" height="68.287" x="-29.743" y="-34.144" transform="matrix(1 0 0 -1 98.4047 646.5352)" overflow="visible"/>
<use xlink:href="#Beheerd_L"  width="57.517" height="47.444" x="-28.758" y="-23.722" transform="matrix(0.5 0 0 -0.5 106.0953 593.3343)" overflow="visible"/>
<use xlink:href="#Verwittiging_L"  width="59.712" height="54.052" x="-29.856" y="-27.026" transform="matrix(0.5 0 0 -0.5 106.0949 320.756)" overflow="visible"/>
<use xlink:href="#Permissief_kast_L_1_"  width="56.872" height="48.386" x="-28.436" y="-24.193" transform="matrix(0.5 0 0 -0.5 105.9408 145.1759)" overflow="visible"/>
<use xlink:href="#Overweg"  width="47.938" height="9.599" x="-23.969" y="-4.8" transform="matrix(1 0 0 -1 113.6942 104.2343)" overflow="visible"/>
<use xlink:href="#Overweg"  width="47.938" height="9.599" x="-23.969" y="-4.8" transform="matrix(1 0 0 -1 113.6942 81.2343)" overflow="visible" enable-background="new    "/>
<use xlink:href="#Aankondiging_L_2"  width="59.617" height="39.971" x="-29.808" y="-19.985" transform="matrix(1 0 0 -1 236.9457 678.6367)" overflow="visible"/>
<use xlink:href="#Overweg"  width="47.938" height="9.599" x="-23.969" y="-4.8" transform="matrix(1 0 0 -1 249.9451 642.1373)" overflow="visible" enable-background="new    "/>
<use xlink:href="#Oorsprong_L"  width="72.18" height="30.081" x="-36.09" y="-15.041" transform="matrix(1 0 0 -1 232.6964 615.147)" overflow="visible"/>
<use xlink:href="#Verwittiging_L"  width="59.712" height="54.052" x="-29.856" y="-27.026" transform="matrix(0.5 0 0 -0.5 243.5813 580.458)" overflow="visible" enable-background="new    "/>
<use xlink:href="#Aankondiging_R"  width="58.884" height="21.04" x="-29.442" y="-10.52" transform="matrix(1 0 0 -1 229.4454 526.3402)" overflow="visible"/>
<use xlink:href="#Beheerd_L"  width="57.517" height="47.444" x="-28.758" y="-23.722" transform="matrix(0.5 0 0 -0.5 243.8893 493.7343)" overflow="visible" enable-background="new    "/>
<use xlink:href="#Overweg"  width="47.938" height="9.599" x="-23.969" y="-4.8" transform="matrix(1 0 0 -1 249.9451 457.6171)" overflow="visible" enable-background="new    "/>
<use xlink:href="#Enkel_perron"  width="17.314" height="74.412" x="-8.657" y="-37.206" transform="matrix(1 0 0 -1 238.3176 403.6376)" overflow="visible"/>
<use xlink:href="#Splitsing_rechtsaf"  width="24.727" height="24.919" x="-12.364" y="-12.459" transform="matrix(1 0 0 -1 263.4448 346.6372)" overflow="visible" enable-background="new    "/>
<use xlink:href="#Beheerd_L"  width="57.517" height="47.444" x="-28.758" y="-23.722" transform="matrix(0.5 0 0 -0.5 243.8893 308.8952)" overflow="visible" enable-background="new    "/>
<use xlink:href="#Splitsing_linksaf"  width="24.919" height="24.727" x="-12.459" y="-12.364" transform="matrix(1 0 0 -1 263.4456 280.048)" overflow="visible"/>
<use xlink:href="#Referte_L"  width="58.11" height="38.804" x="-29.055" y="-19.402" transform="matrix(1 0 0 -1 232.6967 237.6381)" overflow="visible"/>
<use xlink:href="#Overweg"  width="47.938" height="9.599" x="-23.969" y="-4.8" transform="matrix(1 0 0 -1 249.9451 203.6372)" overflow="visible" enable-background="new    "/>
<use xlink:href="#Aankondiging_R"  width="58.884" height="21.04" x="-29.442" y="-10.52" transform="matrix(1 0 0 -1 232.9454 173.1377)" overflow="visible" enable-background="new    "/>
<use xlink:href="#Overweg"  width="47.938" height="9.599" x="-23.969" y="-4.8" transform="matrix(1 0 0 -1 250.4942 156.4302)" overflow="visible" enable-background="new    "/>
<use xlink:href="#Dubbel_perron"  width="42.27" height="74.601" x="-21.135" y="-37.3" transform="matrix(1 0 0 -1 250.4944 106.6813)" overflow="visible"/>
<use xlink:href="#Overweg"  width="47.938" height="9.599" x="-23.969" y="-4.8" transform="matrix(1 0 0 -1 365.945 693.6373)" overflow="visible" enable-background="new    "/>
<use xlink:href="#Overweg"  width="47.938" height="9.599" x="-23.969" y="-4.8" transform="matrix(1 0 0 -1 366.445 672.6373)" overflow="visible" enable-background="new    "/>
<use xlink:href="#Aankondiging_R"  width="58.884" height="21.04" x="-29.442" y="-10.52" transform="matrix(1 0 0 -1 346.543 646.6377)" overflow="visible" enable-background="new    "/>
<use xlink:href="#Dubbel_perron"  width="42.27" height="74.601" x="-21.135" y="-37.3" transform="matrix(1 0 0 -1 365.9452 589.8214)" overflow="visible" enable-background="new    "/>
<use xlink:href="#Verwittiging_L"  width="59.712" height="54.052" x="-29.856" y="-27.026" transform="matrix(0.5 0 0 -0.5 360.4299 516.3202)" overflow="visible" enable-background="new    "/>
<use xlink:href="#Overweg"  width="47.938" height="9.599" x="-23.969" y="-4.8" transform="matrix(1 0 0 -1 365.945 471.6372)" overflow="visible" enable-background="new    "/>
<use xlink:href="#Beheerd_L"  width="57.517" height="47.444" x="-28.758" y="-23.722" transform="matrix(0.5 0 0 -0.5 360.5288 443.2334)" overflow="visible" enable-background="new    "/>
<use xlink:href="#Splitsing_linksaf"  width="24.919" height="24.727" x="-12.459" y="-12.364" transform="matrix(1 0 0 -1 378.4232 403.6372)" overflow="visible" enable-background="new    "/>
<use xlink:href="#Referte_L"  width="58.11" height="38.804" x="-29.055" y="-19.402" transform="matrix(1 0 0 -1 351.9451 359.1381)" overflow="visible" enable-background="new    "/>
<use xlink:href="#Aankondiging_R"  width="58.884" height="21.04" x="-29.442" y="-10.52" transform="matrix(1 0 0 -1 345.4454 317.1377)" overflow="visible" enable-background="new    "/>
<use xlink:href="#Permissief_kast_L_1_"  width="56.872" height="48.386" x="-28.436" y="-24.193" transform="matrix(0.5 0 0 -0.5 360.5261 278.7199)" overflow="visible" enable-background="new    "/>
<use xlink:href="#Overweg"  width="47.938" height="9.599" x="-23.969" y="-4.8" transform="matrix(1 0 0 -1 365.945 242.6372)" overflow="visible" enable-background="new    "/>
<use xlink:href="#Enkel_perron"  width="17.314" height="74.412" x="-8.657" y="-37.206" transform="matrix(1 0 0 -1 354.3176 188.9318)" overflow="visible" enable-background="new    "/>
<use xlink:href="#Overweg"  width="47.938" height="9.599" x="-23.969" y="-4.8" transform="matrix(1 0 0 -1 365.945 138.6372)" overflow="visible" enable-background="new    "/>
<use xlink:href="#Aankondiging_L_2"  width="59.617" height="39.971" x="-29.808" y="-19.985" transform="matrix(1 0 0 -1 350.4456 110.1366)" overflow="visible" enable-background="new    "/>
<use xlink:href="#Overweg"  width="47.938" height="9.599" x="-23.969" y="-4.8" transform="matrix(1 0 0 -1 113.2278 559.15)" overflow="visible" enable-background="new    "/>
<use xlink:href="#Splitsing_rechtsaf"  width="24.727" height="24.919" x="-12.364" y="-12.459" transform="matrix(1 0 0 -1 102.0495 531.053)" overflow="visible" enable-background="new    "/>
<text transform="matrix(1 0 0 1 672.944 53.5325)" font-family="'Arial-BoldMT'" font-size="22.8">L15 : Y. Zonhoven - Mol</text>
<path id="path3015-1-1" inkscape:connector-curvature="0" stroke="#000000" stroke-width="2.4121" d="M113.694,69.679v638.265"/>
<path id="path10871-0-5" inkscape:connector-curvature="0" stroke="#000000" stroke-width="2.4121" d="M250.494,69.679v638.265"/>
<path id="path3855-9-2" inkscape:connector-curvature="0" stroke="#000000" stroke-width="2.4121" d="M366.394,69.679v638.265"/>
<path id="path3857-7" inkscape:connector-curvature="0" stroke="#000000" stroke-width="2.4121" d="M476.594,69.383v638.561"/>
<use xlink:href="#Overweg"  width="47.938" height="9.599" x="-23.969" y="-4.8" transform="matrix(1 0 0 -1 112.5747 502.2343)" overflow="visible" enable-background="new    "/>
<use xlink:href="#Overweg"  width="47.938" height="9.599" x="-23.969" y="-4.8" transform="matrix(1 0 0 -1 113.6942 479.8315)" overflow="visible" enable-background="new    "/>
<use xlink:href="#Referte_L"  width="58.11" height="38.804" x="-29.055" y="-19.402" transform="matrix(1 0 0 -1 95.9451 444.1381)" overflow="visible" enable-background="new    "/>
<use xlink:href="#Overweg"  width="47.938" height="9.599" x="-23.969" y="-4.8" transform="matrix(1 0 0 -1 113.2278 411.2343)" overflow="visible" enable-background="new    "/>
<use xlink:href="#Aankondiging_R"  width="58.884" height="21.04" x="-29.442" y="-10.52" transform="matrix(1 0 0 -1 96.9454 381.1377)" overflow="visible" enable-background="new    "/>
<use xlink:href="#Overweg"  width="47.938" height="9.599" x="-23.969" y="-4.8" transform="matrix(1 0 0 -1 113.2278 355.0685)" overflow="visible" enable-background="new    "/>
<g id="Verwittigingssein_L">
</g>
<use xlink:href="#Overweg"  width="47.938" height="9.599" x="-23.969" y="-4.8" transform="matrix(1 0 0 -1 113.6942 282.5685)" overflow="visible" enable-background="new    "/>
<use xlink:href="#Enkel_perron"  width="17.314" height="74.412" x="-8.657" y="-37.206" transform="matrix(1 0 0 -1 125.5017 226.1376)" overflow="visible" enable-background="new    "/>
<use xlink:href="#Overweg"  width="47.938" height="9.599" x="-23.969" y="-4.8" transform="matrix(1 0 0 -1 113.2278 175.2343)" overflow="visible" enable-background="new    "/>
<g id="Permissief_kast_L">
</g>
<use xlink:href="#Permissief_kast_L_1_"  width="56.872" height="48.386" x="-28.436" y="-24.193" transform="matrix(0.5 0 0 -0.5 468.7514 679.4334)" overflow="visible" enable-background="new    "/>
<use xlink:href="#Oorsprong_L"  width="72.18" height="30.081" x="-36.09" y="-15.041" transform="matrix(1 0 0 -1 456.9448 627.137)" overflow="visible" enable-background="new    "/>
<use xlink:href="#Overweg"  width="47.938" height="9.599" x="-23.969" y="-4.8" transform="matrix(1 0 0 -1 476.445 601.1373)" overflow="visible" enable-background="new    "/>
<use xlink:href="#Beheerd_L"  width="57.517" height="47.444" x="-28.758" y="-23.722" transform="matrix(0.5 0 0 -0.5 468.7541 570.5989)" overflow="visible" enable-background="new    "/>
<use xlink:href="#Overweg"  width="47.938" height="9.599" x="-23.969" y="-4.8" transform="matrix(1 0 0 -1 476.445 533.1373)" overflow="visible" enable-background="new    "/>
<use xlink:href="#Splitsing_rechtsaf"  width="24.727" height="24.919" x="-12.364" y="-12.459" transform="matrix(1 0 0 -1 489.3172 516.3196)" overflow="visible" enable-background="new    "/>
<use xlink:href="#Aankondiging_L_2"  width="59.617" height="39.971" x="-29.808" y="-19.985" transform="matrix(1 0 0 -1 463.9456 477.6367)" overflow="visible" enable-background="new    "/>
<use xlink:href="#Aankondiging_R"  width="58.884" height="21.04" x="-29.442" y="-10.52" transform="matrix(1 0 0 -1 457.6134 438.9376)" overflow="visible" enable-background="new    "/>
<use xlink:href="#Oorsprong_L"  width="72.18" height="30.081" x="-36.09" y="-15.041" transform="matrix(1 0 0 -1 457.6129 408.4588)" overflow="visible" enable-background="new    "/>
<use xlink:href="#Beheerd_L"  width="57.517" height="47.444" x="-28.758" y="-23.722" transform="matrix(0.5 0 0 -0.5 468.7541 364.4505)" overflow="visible" enable-background="new    "/>
<use xlink:href="#Overweg"  width="47.938" height="9.599" x="-23.969" y="-4.8" transform="matrix(1 0 0 -1 476.445 329.6372)" overflow="visible" enable-background="new    "/>
<use xlink:href="#Splitsing_linksaf"  width="24.919" height="24.727" x="-12.459" y="-12.364" transform="matrix(1 0 0 -1 464.8362 305.0766)" overflow="visible" enable-background="new    "/>
<use xlink:href="#Overweg"  width="47.938" height="9.599" x="-23.969" y="-4.8" transform="matrix(1 0 0 -1 476.445 280.1372)" overflow="visible" enable-background="new    "/>
<use xlink:href="#Dubbel_perron"  width="42.27" height="74.601" x="-21.135" y="-37.3" transform="matrix(1 0 0 -1 476.5429 227.6359)" overflow="visible" enable-background="new    "/>
<use xlink:href="#AVG"  width="19.096" height="19.096" x="-9.548" y="-9.548" transform="matrix(1 0 0 -1 489.3175 180.7631)" overflow="visible"/>
<use xlink:href="#Beheerd_L"  width="57.517" height="47.444" x="-28.758" y="-23.722" transform="matrix(0.5 0 0 -0.5 468.7516 141.547)" overflow="visible" enable-background="new    "/>
<use xlink:href="#Splitsing_rechtsaf"  width="24.727" height="24.919" x="-12.364" y="-12.459" transform="matrix(1 0 0 -1 464.065 90.894)" overflow="visible" enable-background="new    "/>
<use xlink:href="#Einde_zone_L"  width="55.113" height="39.16" x="-27.557" y="-19.58" transform="matrix(1 0 0 -1 618.5412 685.9243)" overflow="visible"/>
<use xlink:href="#Referte_L"  width="58.11" height="38.804" x="-29.055" y="-19.402" transform="matrix(1 0 0 -1 616.1572 642.9818)" overflow="visible" enable-background="new    "/>
<use xlink:href="#Stopbord_KB_L"  width="51.928" height="26.46" x="-25.964" y="-13.23" transform="matrix(1 0 0 -1 623.0812 600.6066)" overflow="visible"/>
<use xlink:href="#Permissief_kast_L_1_"  width="56.872" height="48.386" x="-28.436" y="-24.193" transform="matrix(0.5 0 0 -0.5 627.5403 547.7303)" overflow="visible" enable-background="new    "/>
<use xlink:href="#Overweg"  width="47.938" height="9.599" x="-23.969" y="-4.8" transform="matrix(1 0 0 -1 632.9451 503.2343)" overflow="visible" enable-background="new    "/>
<use xlink:href="#Overweg"  width="47.938" height="9.599" x="-23.969" y="-4.8" transform="matrix(1 0 0 -1 632.9451 484.1372)" overflow="visible" enable-background="new    "/>
<use xlink:href="#Permissief_kast_L_1_"  width="56.872" height="48.386" x="-28.436" y="-24.193" transform="matrix(0.5 0 0 -0.5 627.5428 455.9992)" overflow="visible" enable-background="new    "/>
<use xlink:href="#Overweg"  width="47.938" height="9.599" x="-23.969" y="-4.8" transform="matrix(1 0 0 -1 633.6563 416.4366)" overflow="visible" enable-background="new    "/>
<use xlink:href="#Permissief_kast_L_1_"  width="56.872" height="48.386" x="-28.436" y="-24.193" transform="matrix(0.5 0 0 -0.5 627.7793 387.2824)" overflow="visible" enable-background="new    "/>
<use xlink:href="#Overweg"  width="47.938" height="9.599" x="-23.969" y="-4.8" transform="matrix(1 0 0 -1 633.4451 347.1372)" overflow="visible" enable-background="new    "/>
<use xlink:href="#Overweg"  width="47.938" height="9.599" x="-23.969" y="-4.8" transform="matrix(1 0 0 -1 632.9451 327.1372)" overflow="visible" enable-background="new    "/>
<use xlink:href="#Permissief_kast_L_1_"  width="56.872" height="48.386" x="-28.436" y="-24.193" transform="matrix(0.5 0 0 -0.5 627.7768 293.418)" overflow="visible" enable-background="new    "/>
<use xlink:href="#Overweg"  width="47.938" height="9.599" x="-23.969" y="-4.8" transform="matrix(1 0 0 -1 632.9451 255.6372)" overflow="visible" enable-background="new    "/>
<use xlink:href="#Aankondiging_R"  width="58.884" height="21.04" x="-29.442" y="-10.52" transform="matrix(1 0 0 -1 614.8943 227.6377)" overflow="visible" enable-background="new    "/>
<use xlink:href="#Overweg"  width="47.938" height="9.599" x="-23.969" y="-4.8" transform="matrix(1 0 0 -1 633.4451 200.1372)" overflow="visible" enable-background="new    "/>
<use xlink:href="#Permissief_kast_L_1_"  width="56.872" height="48.386" x="-28.436" y="-24.193" transform="matrix(0.5 0 0 -0.5 626.0323 167.8308)" overflow="visible" enable-background="new    "/>
<use xlink:href="#Enkel_perron"  width="17.314" height="74.412" x="-8.657" y="-37.206" transform="matrix(1 0 0 -1 645.2881 107.97)" overflow="visible" enable-background="new    "/>
<use xlink:href="#Overweg"  width="47.938" height="9.599" x="-23.969" y="-4.8" transform="matrix(1 0 0 -1 758.4451 694.1373)" overflow="visible" enable-background="new    "/>
<use xlink:href="#Overweg"  width="47.938" height="9.599" x="-23.969" y="-4.8" transform="matrix(1 0 0 -1 758.9451 667.1373)" overflow="visible" enable-background="new    "/>
<use xlink:href="#Overweg"  width="47.938" height="9.599" x="-23.969" y="-4.8" transform="matrix(1 0 0 -1 758.9451 634.6373)" overflow="visible" enable-background="new    "/>
<use xlink:href="#Permissief_kast_L_1_"  width="56.872" height="48.386" x="-28.436" y="-24.193" transform="matrix(0.5 0 0 -0.5 748.4451 592.6378)" overflow="visible" enable-background="new    "/>
<use xlink:href="#Aankondiging_L_2"  width="59.617" height="39.971" x="-29.808" y="-19.985" transform="matrix(1 0 0 -1 741.1972 532.6887)" overflow="visible" enable-background="new    "/>
<use xlink:href="#Overweg"  width="47.938" height="9.599" x="-23.969" y="-4.8" transform="matrix(1 0 0 -1 758.4451 493.6372)" overflow="visible" enable-background="new    "/>
<use xlink:href="#Permissief_kast_L_1_"  width="56.872" height="48.386" x="-28.436" y="-24.193" transform="matrix(0.5 0 0 -0.5 752.0952 448.9575)" overflow="visible" enable-background="new    "/>
<use xlink:href="#Oorsprong_L"  width="72.18" height="30.081" x="-36.09" y="-15.041" transform="matrix(1 0 0 -1 741.1964 398.3228)" overflow="visible" enable-background="new    "/>
<use xlink:href="#Overweg"  width="47.938" height="9.599" x="-23.969" y="-4.8" transform="matrix(1 0 0 -1 759.4451 366.6372)" overflow="visible" enable-background="new    "/>
<use xlink:href="#Aankondiging_R"  width="58.884" height="21.04" x="-29.442" y="-10.52" transform="matrix(1 0 0 -1 740.9454 334.6377)" overflow="visible" enable-background="new    "/>
<use xlink:href="#Overweg"  width="47.938" height="9.599" x="-23.969" y="-4.8" transform="matrix(1 0 0 -1 758.9451 309.1372)" overflow="visible" enable-background="new    "/>
<use xlink:href="#Beheerd_L"  width="57.517" height="47.444" x="-28.758" y="-23.722" transform="matrix(0.5 0 0 -0.5 752.0836 276.2839)" overflow="visible" enable-background="new    "/>
<use xlink:href="#Splitsing_linksaf"  width="24.919" height="24.727" x="-12.459" y="-12.364" transform="matrix(1 0 0 -1 771.12 243.1372)" overflow="visible" enable-background="new    "/>
<use xlink:href="#Einde_zone_L"  width="55.113" height="39.16" x="-27.557" y="-19.58" transform="matrix(1 0 0 -1 746.4443 200.6384)" overflow="visible" enable-background="new    "/>
<use xlink:href="#Overweg"  width="47.938" height="9.599" x="-23.969" y="-4.8" transform="matrix(1 0 0 -1 758.9451 171.1372)" overflow="visible" enable-background="new    "/>
<use xlink:href="#Dubbel_perron"  width="42.27" height="74.601" x="-21.135" y="-37.3" transform="matrix(1 0 0 -1 759.4453 120.9683)" overflow="visible" enable-background="new    "/>
<text transform="matrix(1 0 0 1 74.0846 561.5984)" fill="#8C8C8C" font-family="'Helvetica-Bold'" font-size="8">148</text>
<text transform="matrix(1 0 0 1 70.9964 504.3512)" fill="#8C8C8C" font-family="'Helvetica-Bold'" font-size="8">147</text>
<text transform="matrix(1 0 0 1 72.5536 482.2803)" fill="#8C8C8C" font-family="'Helvetica-Bold'" font-size="8">146</text>
<text transform="matrix(1 0 0 1 72.5535 413.6827)" fill="#8C8C8C" font-family="'Helvetica-Bold'" font-size="8">145</text>
<text transform="matrix(1 0 0 1 72.5535 357.5171)" fill="#8C8C8C" font-family="'Helvetica-Bold'" font-size="8">144</text>
<text transform="matrix(1 0 0 1 73.3357 285.017)" fill="#8C8C8C" font-family="'Helvetica-Bold'" font-size="8">143</text>
<text transform="matrix(1 0 0 1 74.0847 177.6831)" fill="#8C8C8C" font-family="'Helvetica-Bold'" font-size="8">142</text>
<text transform="matrix(1 0 0 1 74.0848 106.6831)" fill="#8C8C8C" font-family="'Helvetica-Bold'" font-size="8">141</text>
<text transform="matrix(1 0 0 1 209.054 644.5864)" fill="#8C8C8C" font-family="'Helvetica-Bold'" font-size="8">139</text>
<text transform="matrix(1 0 0 1 74.7515 83.6831)" fill="#8C8C8C" font-family="'Helvetica-Bold'" font-size="8">140</text>
<text transform="matrix(1 0 0 1 210.3873 460.0663)" fill="#8C8C8C" font-family="'Helvetica-Bold'" font-size="8">138</text>
<text transform="matrix(1 0 0 1 210.3874 206.0858)" fill="#8C8C8C" font-family="'Helvetica-Bold'" font-size="8">137</text>
<text transform="matrix(1 0 0 1 210.3875 158.0858)" fill="#8C8C8C" font-family="'Helvetica-Bold'" font-size="8">136</text>
<text transform="matrix(1 0 0 1 325.7209 696.0858)" fill="#8C8C8C" font-family="'Helvetica-Bold'" font-size="8">135</text>
<text transform="matrix(1 0 0 1 325.7209 675.0858)" fill="#8C8C8C" font-family="'Helvetica-Bold'" font-size="8">134</text>
<text transform="matrix(1 0 0 1 325.7208 473.2528)" fill="#8C8C8C" font-family="'Helvetica-Bold'" font-size="8">132</text>
<text transform="matrix(1 0 0 1 326.0865 245.0858)" fill="#8C8C8C" font-family="'Helvetica-Bold'" font-size="8">131</text>
<text transform="matrix(1 0 0 1 325.6089 140.4192)" fill="#8C8C8C" font-family="'Helvetica-Bold'" font-size="8">130</text>
<text transform="matrix(1 0 0 1 436.2756 602.7399)" fill="#8C8C8C" font-family="'Helvetica-Bold'" font-size="8">129</text>
<text transform="matrix(1 0 0 1 435.6089 535.5856)" fill="#8C8C8C" font-family="'Helvetica-Bold'" font-size="8">128</text>
<text transform="matrix(1 0 0 1 437.1089 332.0856)" fill="#8C8C8C" font-family="'Helvetica-Bold'" font-size="8">127</text>
<text transform="matrix(1 0 0 1 437.1089 282.5865)" fill="#8C8C8C" font-family="'Helvetica-Bold'" font-size="8">126</text>
<text transform="matrix(1 0 0 1 593.4422 505.6826)" fill="#8C8C8C" font-family="'Helvetica-Bold'" font-size="8">125</text>
<text transform="matrix(1 0 0 1 593.4424 486.5859)" fill="#8C8C8C" font-family="'Helvetica-Bold'" font-size="8">124</text>
<text transform="matrix(1 0 0 1 593.4415 418.8851)" fill="#8C8C8C" font-family="'Helvetica-Bold'" font-size="8">121</text>
<text transform="matrix(1 0 0 1 593.4429 349.5863)" fill="#8C8C8C" font-family="'Helvetica-Bold'" font-size="8">120</text>
<text transform="matrix(1 0 0 1 593.4429 328.4196)" fill="#8C8C8C" font-family="'Helvetica-Bold'" font-size="8">119</text>
<text transform="matrix(1 0 0 1 593.4429 258.0861)" fill="#8C8C8C" font-family="'Helvetica-Bold'" font-size="8">117</text>
<text transform="matrix(1 0 0 1 593.4429 202.5861)" fill="#8C8C8C" font-family="'Helvetica-Bold'" font-size="8">115</text>
<text transform="matrix(1 0 0 1 718.4429 696.5861)" fill="#8C8C8C" font-family="'Helvetica-Bold'" font-size="8">114</text>
<text transform="matrix(1 0 0 1 718.4429 669.5861)" fill="#8C8C8C" font-family="'Helvetica-Bold'" font-size="8">113</text>
<text transform="matrix(1 0 0 1 718.4429 637.0861)" fill="#8C8C8C" font-family="'Helvetica-Bold'" font-size="8">112</text>
<text transform="matrix(1 0 0 1 718.4427 496.0861)" fill="#8C8C8C" font-family="'Helvetica-Bold'" font-size="8">111</text>
<text transform="matrix(1 0 0 1 718.4427 369.0861)" fill="#8C8C8C" font-family="'Helvetica-Bold'" font-size="8">110</text>
<text transform="matrix(1 0 0 1 722.6091 311.586)" fill="#8C8C8C" font-family="'Helvetica-Bold'" font-size="8">78</text>
<text transform="matrix(1 0 0 1 83.1742 629.8386)" font-family="'Helvetica'" font-size="13">9</text>
<text transform="matrix(1 0 0 1 76.7513 448.9575)" fill="#FFFFFF" font-family="'Helvetica'" font-size="13">12</text>
<text transform="matrix(1 0 0 1 72.5533 387.2825)" fill="#FFFFFF" font-family="'Helvetica'" font-size="15">ZON</text>
<text transform="matrix(1 0 0 1 221.8314 675.0864)" font-family="'Helvetica'" font-size="13">9</text>
<text transform="matrix(1 0 0 1 211.3873 615.1482)" font-family="'Helvetica-Bold'" font-size="15">9</text>
<text transform="matrix(1 0 0 1 204.3873 531.0532)" fill="#FFFFFF" font-family="'Helvetica'" font-size="15">ZOL</text>
<text transform="matrix(1 0 0 1 208.7454 177.4309)" fill="#FFFFFF" font-family="'Helvetica'" font-size="15">HEU</text>
<text transform="matrix(1 0 0 1 321.1488 322.9311)" fill="#FFFFFF" font-family="'Helvetica'" font-size="15">BEV</text>
<text transform="matrix(1 0 0 1 321.1487 651.931)" fill="#FFFFFF" font-family="'Helvetica'" font-size="15">BER</text>
<text transform="matrix(1 0 0 1 433.5812 444.6497)" fill="#FFFFFF" font-family="'Helvetica'" font-size="15">LEO</text>
<text transform="matrix(1 0 0 1 592.388 233.2349)" fill="#FFFFFF" font-family="'Helvetica'" font-size="15">BAL</text>
<text transform="matrix(1 0 0 1 715.6053 339.9916)" fill="#FFFFFF" font-family="'Helvetica'" font-size="15">MOL</text>
<text transform="matrix(1 0 0 1 213.2513 243.3964)" fill="#FFFFFF" font-family="'Helvetica'" font-size="13">12</text>
<text transform="matrix(1 0 0 1 332.2513 364.4506)" fill="#FFFFFF" font-family="'Helvetica'" font-size="13">12</text>
<text transform="matrix(1 0 0 1 596.6685 648.1177)" fill="#FFFFFF" font-family="'Helvetica'" font-size="13">12</text>
<text transform="matrix(1 0 0 1 332.2513 104.9934)" font-family="'Helvetica'" font-size="13">11</text>
<text transform="matrix(1 0 0 1 431.6638 626.9818)" font-family="'Helvetica-Bold'" font-size="15">11</text>
<text transform="matrix(1 0 0 1 449.9722 474.0148)" font-family="'Helvetica'" font-size="13">7</text>
<text transform="matrix(1 0 0 1 436.2756 408.7146)" font-family="'Helvetica'" font-size="13">7</text>
<text transform="matrix(1 0 0 1 604.091 682.0853)" font-family="'Helvetica'" font-size="15">7</text>
<text transform="matrix(1 0 0 1 727.2689 529.2643)" font-family="'Helvetica'" font-size="13">7</text>
<text transform="matrix(1 0 0 1 719.8947 398.7643)" font-family="'Helvetica'" font-size="13">7</text>
<text transform="matrix(1 0 0 1 732.0421 195.6168)" font-family="'Helvetica'" font-size="13">8</text>
<use xlink:href="#AVG"  width="19.096" height="19.096" x="-9.548" y="-9.548" transform="matrix(1 0 0 -1 771.4951 74.0807)" overflow="visible" enable-background="new    "/>
<text transform="matrix(1 0 0 1 722.6093 173.5858)" fill="#8C8C8C" font-family="'Helvetica-Bold'" font-size="8">79</text>
<text transform="matrix(1 0 0 1 42.2512 227.6378)" font-family="'Helvetica-Bold'" font-size="12">ZONHOVEN</text>
<text transform="matrix(1 0 0 1 167.8489 103.9934)" font-family="'Helvetica-Bold'" font-size="12">HEUSDEN</text>
<text transform="matrix(1 0 0 1 176.6459 403.6381)" font-family="'Helvetica-Bold'" font-size="12">ZOLDER</text>
<text transform="matrix(1 0 0 1 283.9678 190.3848)" font-family="'Helvetica-Bold'" font-size="12">BEVERLO</text>
<text transform="matrix(1 0 0 1 382.4738 227.6377)" font-family="'Helvetica-Bold'" font-size="12">LEOPOLDS- </text>
<text transform="matrix(1 0 0 1 417.1438 242.0377)" font-family="'Helvetica-Bold'" font-size="12">BURG</text>
<text transform="matrix(1 0 0 1 278.6358 586.6377)" font-family="'Helvetica-Bold'" font-size="12">BERINGEN</text>
<text transform="matrix(1 0 0 1 588.8884 107.9701)" font-family="'Helvetica-Bold'" font-size="12">BALEN</text>
<text transform="matrix(1 0 0 1 708.3158 120.9225)" font-family="'Helvetica-Bold'" font-size="12">MOL</text>
<use xlink:href="#Splitsing_rechtsaf"  width="24.727" height="24.919" x="-12.364" y="-12.459" transform="matrix(1 0 0 -1 771.1192 194.1462)" overflow="visible" enable-background="new    "/>
<text transform="matrix(1 0 0 1 55.5847 592.843)" font-family="'Helvetica'" font-size="11">DZ.19</text>
<text transform="matrix(1 0 0 1 59.5847 318.8406)" font-family="'Helvetica'" font-size="11">b897</text>
<text transform="matrix(1 0 0 1 55.5848 143.3671)" font-family="'Helvetica'" font-size="11">B897</text>
<text transform="matrix(1 0 0 1 189.2513 580.4581)" font-family="'Helvetica'" font-size="11">m-o.14</text>
<text transform="matrix(1 0 0 1 187.2515 492.7344)" font-family="'Helvetica'" font-size="11">M-O.14</text>
<text transform="matrix(1 0 0 1 187.2518 307.3562)" font-family="'Helvetica'" font-size="11">D-O.14</text>
<text transform="matrix(1 0 0 1 308.9185 515.7501)" font-family="'Helvetica'" font-size="11">l-m.14</text>
<text transform="matrix(1 0 0 1 305.9182 440.8439)" font-family="'Helvetica'" font-size="11">L-M.14</text>
<text transform="matrix(1 0 0 1 308.9183 277.0371)" font-family="'Helvetica'" font-size="12">B736</text>
<text transform="matrix(1 0 0 1 422.0243 677.6246)" font-family="'Helvetica'" font-size="11">B720</text>
<text transform="matrix(1 0 0 1 417.1436 568.5994)" font-family="'Helvetica'" font-size="11">T-L.14</text>
<text transform="matrix(1 0 0 1 417.1436 362.8958)" font-family="'Helvetica'" font-size="11">N-L.14</text>
<text transform="matrix(1 0 0 1 417.1438 140.4193)" font-family="'Helvetica'" font-size="11">E-L.14</text>
<text transform="matrix(1 0 0 1 574.6308 548.4265)" font-family="'Helvetica'" font-size="11">B673</text>
<text transform="matrix(1 0 0 1 574.6306 456.4907)" font-family="'Helvetica'" font-size="11">B660</text>
<text transform="matrix(1 0 0 1 574.6308 384.1045)" font-family="'Helvetica'" font-size="11">B641</text>
<text transform="matrix(1 0 0 1 574.6307 293.3015)" font-family="'Helvetica'" font-size="11">B623</text>
<text transform="matrix(1 0 0 1 574.6308 168.9177)" font-family="'Helvetica'" font-size="11">B606</text>
<text transform="matrix(1 0 0 1 700.6073 590.8286)" font-family="'Helvetica'" font-size="11">B588</text>
<text transform="matrix(1 0 0 1 700.6072 447.1486)" font-family="'Helvetica'" font-size="11">B573</text>
<text transform="matrix(1 0 0 1 694.9433 275.3372)" font-family="'Helvetica'" font-size="11">D-K.14</text>
<text transform="matrix(1 0 0 1 169.2056 118.1345)" fill="#FF0000" font-family="'Helvetica-Bold'" font-size="11">SLECHTE </text>
<text transform="matrix(1 0 0 1 167.9806 131.3346)" fill="#FF0000" font-family="'Helvetica-Bold'" font-size="11">ADHESIE!</text>
<text transform="matrix(1 0 0 1 531.7226 598.6172)" font-family="'Helvetica'" font-size="11">PK67L-L.14</text>
<text transform="matrix(1 0 0 1 79.7511 662.3837)" fill="#FFFFFF" font-family="'Helvetica'" font-size="13">15</text>
<text transform="matrix(1 0 0 1 124.1142 709.0286)" font-family="'Helvetica'" font-size="11">Y. ZONHOVEN</text>
</svg>
